PathFileType	4	(X/Y/Z)	9_1_40_p0_0-248_filt_butterworth.trc
DataRate	CameraRate	NumFrames	NumMarkers	Units	OrigDataRate	OrigDataStartFrame	OrigNumFrames
60.0	60.0	4	27	m	60.0	0	248
Frame#	Time	RHip			RKnee			RAnkle			RBigToe			RSmallToe			RHeel			LHip			LKnee			LAnkle			LBigToe			LSmallToe			LHeel			Neck			Head			Nose			RShoulder			RElbow			RWrist			RThumb			RIndex			RPinky			LShoulder			LElbow			LWrist			LThumb			LIndex			LPinky			
		X1	Y1	Z1	X2	Y2	Z2	X3	Y3	Z3	X4	Y4	Z4	X5	Y5	Z5	X6	Y6	Z6	X7	Y7	Z7	X8	Y8	Z8	X9	Y9	Z9	X10	Y10	Z10	X11	Y11	Z11	X12	Y12	Z12	X13	Y13	Z13	X14	Y14	Z14	X15	Y15	Z15	X16	Y16	Z16	X17	Y17	Z17	X18	Y18	Z18	X19	Y19	Z19	X20	Y20	Z20	X21	Y21	Z21	X22	Y22	Z22	X23	Y23	Z23	X24	Y24	Z24	X25	Y25	Z25	X26	Y26	Z26	X27	Y27	Z27	
0	0.0	0.2768593797461169	0.4454238677467758	1.011583433498061	0.26745754231154856	0.47831301753391464	1.435449501628923	0.267789971332683	0.6127863778821917	1.8797631342717218	0.27244687739571244	0.42121131278363544	1.8883038857656471	0.31857318131755996	0.45455062733559537	1.8893738118034655	0.2595851119951959	0.6731988396259008	1.9366119264963042	0.07527734625808404	0.4678864806332405	1.0097531074983805	0.08711760490680417	0.5135112166116347	1.454506295875889	0.09490661272789544	0.5821187675634382	1.8738561611461826	0.124169989039246	0.4463755376392915	1.9068757980184436	0.06143638417547948	0.4726749705829316	1.9008353092262502	0.10573104127189072	0.6198195880093683	1.91761927023451	0.18317631643291096	0.41254960646704786	0.5078167186663265	0.19113394737703104	0.2930254892759522	0.2592489890247852	0.183583661062708	0.2521785552508723	0.390650895402216	0.3291118292734683	0.3895611685167184	0.5907957308823988	0.3518959903505892	0.3906369733031638	0.8480001484891071	0.26814235852434487	0.26115847082322025	1.0411257728150136	0.16831719047708332	0.22138112004666166	1.1001668539689564	0.17064154681196336	0.22314502273414866	1.124187566574304	0.19753381734847278	0.29839977860629774	1.165202141592546	0.05131593497173648	0.39432629430027777	0.589826546487967	0.0199206922423183	0.37413292545813215	0.8468143945092941	0.10905146169889009	0.2849237739173386	1.0348942245218815	0.1831542996544515	0.2367634266188471	1.0927023507086522	0.1856685631561526	0.2360341378377926	1.1209226638756138	0.17533204034086775	0.2615605429509627	1.1383545905023311
1	0.0166666666666666	0.2744274283259236	0.4380933204237338	1.0129953985778906	0.26726581852001613	0.4779752439293567	1.440254411225261	0.2678694425120637	0.6127275320348533	1.880175947957213	0.26965364940238096	0.4300082513606053	1.8930929084185524	0.31772439543381553	0.47157879029532684	1.898168892668469	0.2596836343791775	0.6736165911707246	1.936640000072735	0.07502027920092066	0.46712695274664895	1.0148781603801766	0.08647501059965851	0.5142965463152565	1.457498595273565	0.09489822699625905	0.582000249921626	1.8735939018811316	0.1228987704870825	0.439270554655459	1.9047239519201606	0.06110221871662007	0.46123333705848824	1.894553650496348	0.10271541207537192	0.6172061282879716	1.9172024097964435	0.1830886237964541	0.41217686539838655	0.5069137797085613	0.1911053456769616	0.29326551976779014	0.25926479440293826	0.18358451033454964	0.25220789681992356	0.3906363674966167	0.32912251774851753	0.3895504550911971	0.5907206268301988	0.3522249379273165	0.39159208052991024	0.8501519026576256	0.266887973394498	0.25794343899549	1.0379339609843767	0.16812964635047073	0.21104850345275827	1.0975551670132844	0.17095175145955754	0.2235924363750166	1.1240334739758127	0.19732901623870613	0.2971239770100908	1.1645326033772256	0.049639915746108564	0.39229103552896105	0.5885187183386672	0.019616262182678094	0.37427912957408555	0.8492056481864556	0.10922519438539428	0.28409652842186095	1.0369525758679912	0.18202263038284938	0.2333389581279151	1.0950409781626929	0.1845993578206012	0.23393603687567097	1.1223125088731034	0.17527361782729628	0.2615706804832408	1.1381987980125974
2	0.0333333333333333	0.27301493103613544	0.4334984392980078	1.014446081893011	0.2670949653337789	0.47788640816614963	1.4436207008998279	0.2679190875682727	0.6123731529415556	1.8814550429930796	0.26795467159434455	0.4353101267416536	1.8959792153693258	0.31723692313231383	0.48186732539609395	1.9034726233214447	0.2597511789422905	0.6738188781523005	1.936644637060022	0.07496320169125473	0.4666207314537197	1.0186872461146799	0.08610009829622903	0.5150349442917039	1.4594129303863284	0.09489590871584144	0.5819512479691688	1.8735506382609792	0.1224677170888934	0.4369528685152817	1.904584575226957	0.06017087509322691	0.4560207211559166	1.8917919123556342	0.10103983820275445	0.6156823405140706	1.9162748464674224	0.18306391697171476	0.4121102391717236	0.5068214283941118	0.19108286504861807	0.2934039848304932	0.2592754004349324	0.1835807718624573	0.25222802880169853	0.39063079663954237	0.32911132379132574	0.38956959984289313	0.5910127373141606	0.35243492788428943	0.3921796400608487	0.8516283721903246	0.26575581810410426	0.25468192106876025	1.0356946116364394	0.16873508395680248	0.20318935224414875	1.0960239959889129	0.17177162413610286	0.22407473178291826	1.1239948775001403	0.1967940763568382	0.29438067444010085	1.1634365434549339	0.04815755706172151	0.39082175225537286	0.5875636034584838	0.01948936560086388	0.37423386076542464	0.851009880212921	0.10933858155758092	0.28357849193269985	1.0381473096297924	0.18145393040376503	0.230747442686273	1.0965340323644628	0.18407378676258332	0.23334285698687376	1.1221195243731512	0.17534671189432216	0.2589438028312282	1.1368126674163266
3	0.05	0.27269594730368024	0.43191821040335543	1.0157832548190875	0.26691242892206923	0.4781436052121402	1.4456371824295777	0.26789805080715434	0.6118215133274001	1.8835253299828871	0.2674443155365007	0.43683154069942237	1.896799259044836	0.31711874633690007	0.48485033478222994	1.9049881816686915	0.25977307521140164	0.6737849161066995	1.9366391742864404	0.07513070888936624	0.46655665064420726	1.020967773340031	0.08600088030675579	0.5156716737660987	1.4603582749153146	0.09492589355130096	0.5818417434778558	1.8739537595078761	0.12290635821191101	0.43939631934377454	1.9059229500215564	0.05919621546062498	0.4563499003960155	1.8922182548096431	0.1006777234847574	0.6153414467621883	1.9152752176372982	0.18308509039375648	0.4122655883819547	0.5072855364267455	0.19108118244028677	0.29339302302482967	0.25928931107049497	0.18357267365388275	0.2522405770607852	0.3906302217709558	0.32906197141346216	0.3896398288398708	0.5918649982937305	0.35256966915952415	0.39240918623683635	0.8528796220373493	0.2650113705094237	0.25226751431516525	1.0346113597816882	0.1699944492177018	0.19897348169162857	1.0957882159390695	0.1729475236750897	0.2244905259924139	1.1240813425284575	0.19603822512951233	0.2906548639866872	1.1620669223805637	0.047374274599899374	0.39099219979979394	0.5869617899676742	0.019531256983727867	0.3740384208993689	0.8520511732717402	0.10938517957545449	0.28339783059981166	1.038414955536858	0.18104960087082186	0.22864208003998487	1.0965667738597966	0.18369979439141623	0.23283773595081858	1.1201391421912688	0.17566426745001448	0.2524492821424904	1.133930715856522
